<?xml version="1.0" encoding="UTF-8" standalone="no"?>
<!DOCTYPE svg PUBLIC "-//W3C//DTD SVG 1.1//EN" "http://www.w3.org/Graphics/SVG/1.1/DTD/svg11.dtd">
<svg width="100%" height="100%" viewBox="0 0 6615 4678" version="1.1" xmlns="http://www.w3.org/2000/svg" xmlns:xlink="http://www.w3.org/1999/xlink" xml:space="preserve" xmlns:serif="http://www.serif.com/" style="fill-rule:evenodd;clip-rule:evenodd;stroke-linejoin:round;stroke-miterlimit:2;">
    <g transform="matrix(0.333333,0,0,0.333333,0,0)">
        <rect id="Artboard1" x="0" y="0" width="19842.5" height="14031.5" style="fill:none;"/>
        <g id="Artboard11" serif:id="Artboard1">
            <g transform="matrix(1.61207,0,0,1.34936,-2571.45,-4061.71)">
                <g transform="matrix(2854.91,0,0,2854.91,8160.27,8302)">
                </g>
                <text x="6783px" y="8302px" style="font-family:'Futura-Medium', 'Futura', sans-serif;font-weight:500;font-size:2854.91px;">T</text>
            </g>
            <g transform="matrix(1.61921,0,0,1.61921,-2186.53,-4269.07)">
                <g transform="matrix(2854.91,0,0,2854.91,8674.66,8302)">
                </g>
                <text x="6783px" y="8302px" style="font-family:'Futura-Medium', 'Futura', sans-serif;font-weight:500;font-size:2854.91px;">K</text>
            </g>
            <g transform="matrix(0.820797,0,0,0.820797,5789.31,1409.29)">
                <g transform="matrix(2854.91,0,0,2854.91,13390.6,8302)">
                </g>
                <text x="6783px" y="8302px" style="font-family:'Futura-Medium', 'Futura', sans-serif;font-weight:500;font-size:2854.91px;">er<tspan x="9473.42px 10516.1px 12232.2px " y="8302px 8302px 8302px ">ros</tspan></text>
            </g>
            <g transform="matrix(0.820797,0,0,0.820797,-2520.78,-77.7051)">
                <g transform="matrix(2854.91,0,0,2854.91,13920.3,8302)">
                </g>
                <text x="6783px" y="8302px" style="font-family:'Futura-Medium', 'Futura', sans-serif;font-weight:500;font-size:2854.91px;">oinen</text>
            </g>
            <g transform="matrix(1.27739,0,0,0.79503,-2349.66,1545.23)">
                <rect x="4078" y="3385" width="4349" height="516"/>
            </g>
            <g transform="matrix(1,0,0,0.820611,-18,1629.65)">
                <g transform="matrix(1.24292,0,0,1.02619,6047.93,5700)">
                    <rect x="4078" y="3385" width="4349" height="516"/>
                </g>
                <g transform="matrix(0.884279,-0.466958,0.466958,0.884279,-2911.18,5362.8)">
                    <rect x="10231" y="9916.55" width="387" height="766.452" style="fill:white;"/>
                </g>
            </g>
            <g transform="matrix(0.884279,-0.466958,0.466958,0.884279,-11168.2,201.451)">
                <rect x="10231" y="9916.55" width="387" height="766.452" style="fill:white;"/>
            </g>
            <g transform="matrix(0.83859,0.544763,-0.544763,0.83859,13391.1,-4804.78)">
                <rect x="10231" y="9916.55" width="387" height="766.452" style="fill:white;"/>
            </g>
        </g>
    </g>
</svg>
